<?xml version="1.0" standalone="no"?><!DOCTYPE svg PUBLIC "-//W3C//DTD SVG 1.1//EN" "http://www.w3.org/Graphics/SVG/1.1/DTD/svg11.dtd"><svg t="1553112013926" class="icon" style="" viewBox="0 0 1024 1024" version="1.1" xmlns="http://www.w3.org/2000/svg" p-id="3071" xmlns:xlink="http://www.w3.org/1999/xlink" width="200" height="200"><defs><style type="text/css"></style></defs><path d="M12.768 1007.776h229.04V357.888H12.768v649.888z m762.176-670.384c-94.8 0-147.072 31.552-207.248 107.984v-87.504H339.024v649.904H567.68V654.624c0-74.528 35.84-147.424 121.536-147.424s106.768 72.88 106.768 145.648v354.944H1024v-369.44c0-256.688-154.224-300.96-249.056-300.96zM127.712 32.208C57.152 32.208 0 83.552 0 146.928c0 63.328 57.152 114.592 127.712 114.592 70.496 0 127.648-51.28 127.648-114.592 0-63.376-57.152-114.72-127.648-114.72z" fill="" p-id="3072"></path></svg>