<?xml version="1.0" standalone="no"?><!DOCTYPE svg PUBLIC "-//W3C//DTD SVG 1.1//EN" "http://www.w3.org/Graphics/SVG/1.1/DTD/svg11.dtd"><svg t="1553111847798" class="icon" style="" viewBox="0 0 1024 1024" version="1.1" xmlns="http://www.w3.org/2000/svg" p-id="1540" xmlns:xlink="http://www.w3.org/1999/xlink" width="200" height="200"><defs><style type="text/css"></style></defs><path d="M1013.8624 883.712c-29.2864 80.657067-101.5808 133.495467-181.179733 138.990933l0 0.989867c-497.834667 0-832.4096-332.8-832.4096-834.525867L1.706667 189.166933c6.4512-78.7456 58.6752-150.016 138.205867-179.029333C247.9104-29.252267 289.109333 55.125333 328.430933 163.396267c39.3216 108.270933 61.8496 199.441067-46.148267 238.865067-12.3904 4.5056-24.951467 7.406933-37.5808 9.4208 44.1344 181.930667 187.0848 323.7888 368.571733 367.342933 2.048-12.731733 4.983467-25.463467 9.489067-37.9904 39.287467-108.270933 130.2528-85.674667 238.250667-46.250667S1053.149867 775.441067 1013.8624 883.712z" p-id="1541"></path></svg>